<?xml version="1.0" encoding="UTF-8"?><svg xmlns="http://www.w3.org/2000/svg" xmlns:xlink="http://www.w3.org/1999/xlink" fill-opacity="1" color-rendering="auto" color-interpolation="auto" text-rendering="auto" stroke="black" stroke-linecap="square" width="220" stroke-miterlimit="10" shape-rendering="auto" stroke-opacity="1" fill="black" stroke-dasharray="none" font-weight="normal" stroke-width="1" height="239" font-family="'Dialog'" font-style="normal" stroke-linejoin="miter" font-size="12px" stroke-dashoffset="0" image-rendering="auto">
  <!--Generated by ySVG 2.5-->
  <defs id="genericDefs"/>
  <g>
    <defs id="defs1">
      <clipPath clipPathUnits="userSpaceOnUse" id="clipPath1">
        <path d="M0 0 L220 0 L220 239 L0 239 L0 0 Z"/>
      </clipPath>
      <clipPath clipPathUnits="userSpaceOnUse" id="clipPath2">
        <path d="M359 168 L579 168 L579 407 L359 407 L359 168 Z"/>
      </clipPath>
    </defs>
    <g fill="white" text-rendering="geometricPrecision" shape-rendering="geometricPrecision" transform="translate(-359,-168)" stroke="white">
      <rect x="359" width="220" height="239" y="168" clip-path="url(#clipPath2)" stroke="none"/>
    </g>
    <g fill="rgb(221,221,221)" text-rendering="geometricPrecision" shape-rendering="geometricPrecision" transform="matrix(1,0,0,1,-359,-168)" stroke="rgb(221,221,221)">
      <rect x="374" width="190" height="178" y="214" clip-path="url(#clipPath2)" stroke="none"/>
    </g>
    <g text-rendering="geometricPrecision" stroke-miterlimit="1.45" shape-rendering="geometricPrecision" transform="matrix(1,0,0,1,-359,-168)" stroke-linecap="butt">
      <rect fill="none" x="374" width="190" height="178" y="214" clip-path="url(#clipPath2)"/>
      <text x="427.3076" xml:space="preserve" y="383.3633" clip-path="url(#clipPath2)" font-family="sans-serif" stroke="none">Gebug Protocol</text>
    </g>
    <g fill="rgb(153,153,153)" text-rendering="geometricPrecision" shape-rendering="geometricPrecision" transform="matrix(1,0,0,1,-359,-168)" stroke="rgb(153,153,153)">
      <rect x="407" width="125" height="90" y="272" clip-path="url(#clipPath2)" stroke="none"/>
    </g>
    <g text-rendering="geometricPrecision" stroke-miterlimit="1.45" shape-rendering="geometricPrecision" transform="matrix(1,0,0,1,-359,-168)" stroke-linecap="butt">
      <rect fill="none" x="407" width="125" height="90" y="272" clip-path="url(#clipPath2)"/>
      <text x="423.4805" xml:space="preserve" y="353.3633" clip-path="url(#clipPath2)" font-family="sans-serif" stroke="none">Device Protocol *</text>
    </g>
    <g fill="rgb(153,204,255)" text-rendering="geometricPrecision" shape-rendering="geometricPrecision" transform="matrix(1,0,0,1,-359,-168)" stroke="rgb(153,204,255)">
      <rect x="430" width="79" height="31" y="292" clip-path="url(#clipPath2)" stroke="none"/>
    </g>
    <g text-rendering="geometricPrecision" stroke-miterlimit="1.45" shape-rendering="geometricPrecision" transform="matrix(1,0,0,1,-359,-168)" stroke-linecap="butt">
      <rect fill="none" x="430" width="79" height="31" y="292" clip-path="url(#clipPath2)"/>
      <text x="457.8223" xml:space="preserve" y="312.2139" clip-path="url(#clipPath2)" font-family="sans-serif" stroke="none">data</text>
    </g>
    <g fill="rgb(181,226,181)" text-rendering="geometricPrecision" shape-rendering="geometricPrecision" transform="matrix(1,0,0,1,-359,-168)" stroke="rgb(181,226,181)">
      <rect x="407" width="125" height="31" y="241" clip-path="url(#clipPath2)" stroke="none"/>
    </g>
    <g text-rendering="geometricPrecision" stroke-miterlimit="1.45" shape-rendering="geometricPrecision" transform="matrix(1,0,0,1,-359,-168)" stroke-linecap="butt">
      <rect fill="none" x="407" width="125" height="31" y="241" clip-path="url(#clipPath2)"/>
      <text x="438.4863" xml:space="preserve" y="261.2139" clip-path="url(#clipPath2)" font-family="sans-serif" stroke="none">UNFLoader</text>
    </g>
    <g fill="rgb(181,226,181)" text-rendering="geometricPrecision" shape-rendering="geometricPrecision" transform="matrix(1,0,0,1,-359,-168)" stroke="rgb(181,226,181)">
      <rect x="374" width="190" height="31" y="183" clip-path="url(#clipPath2)" stroke="none"/>
    </g>
    <g text-rendering="geometricPrecision" stroke-miterlimit="1.45" shape-rendering="geometricPrecision" transform="matrix(1,0,0,1,-359,-168)" stroke-linecap="butt">
      <rect fill="none" x="374" width="190" height="31" y="183" clip-path="url(#clipPath2)"/>
      <text x="435.3203" xml:space="preserve" y="203.2139" clip-path="url(#clipPath2)" font-family="sans-serif" stroke="none">Gebug ROM</text>
    </g>
  </g>
</svg>
