<?xml version="1.0" encoding="UTF-8"?><svg xmlns="http://www.w3.org/2000/svg" xmlns:xlink="http://www.w3.org/1999/xlink" fill-opacity="1" color-rendering="auto" color-interpolation="auto" text-rendering="auto" stroke="black" stroke-linecap="square" width="220" stroke-miterlimit="10" shape-rendering="auto" stroke-opacity="1" fill="black" stroke-dasharray="none" font-weight="normal" stroke-width="1" height="123" font-family="'Dialog'" font-style="normal" stroke-linejoin="miter" font-size="12px" stroke-dashoffset="0" image-rendering="auto">
  <!--Generated by ySVG 2.5-->
  <defs id="genericDefs"/>
  <g>
    <defs id="defs1">
      <clipPath clipPathUnits="userSpaceOnUse" id="clipPath1">
        <path d="M0 0 L220 0 L220 123 L0 123 L0 0 Z"/>
      </clipPath>
      <clipPath clipPathUnits="userSpaceOnUse" id="clipPath2">
        <path d="M417 83 L637 83 L637 206 L417 206 L417 83 Z"/>
      </clipPath>
    </defs>
    <g fill="white" text-rendering="geometricPrecision" shape-rendering="geometricPrecision" transform="translate(-417,-83)" stroke="white">
      <rect x="417" width="220" height="123" y="83" clip-path="url(#clipPath2)" stroke="none"/>
    </g>
    <g fill="rgb(181,226,181)" text-rendering="geometricPrecision" shape-rendering="geometricPrecision" transform="matrix(1,0,0,1,-417,-83)" stroke="rgb(181,226,181)">
      <rect x="432" width="190" height="31" y="129" clip-path="url(#clipPath2)" stroke="none"/>
    </g>
    <g text-rendering="geometricPrecision" stroke-miterlimit="1.45" shape-rendering="geometricPrecision" transform="matrix(1,0,0,1,-417,-83)" stroke-linecap="butt">
      <rect fill="none" x="432" width="190" height="31" y="129" clip-path="url(#clipPath2)"/>
      <text x="475.9766" xml:space="preserve" y="149.2139" clip-path="url(#clipPath2)" font-family="sans-serif" stroke="none">UNFLoader Packet</text>
    </g>
    <g fill="rgb(181,226,181)" text-rendering="geometricPrecision" shape-rendering="geometricPrecision" transform="matrix(1,0,0,1,-417,-83)" stroke="rgb(181,226,181)">
      <rect x="432" width="190" height="31" y="98" clip-path="url(#clipPath2)" stroke="none"/>
    </g>
    <g text-rendering="geometricPrecision" stroke-miterlimit="1.45" shape-rendering="geometricPrecision" transform="matrix(1,0,0,1,-417,-83)" stroke-linecap="butt">
      <rect fill="none" x="432" width="190" height="31" y="98" clip-path="url(#clipPath2)"/>
      <text x="488.9756" xml:space="preserve" y="118.2139" clip-path="url(#clipPath2)" font-family="sans-serif" stroke="none">Gebug Packet</text>
    </g>
    <g fill="rgb(181,226,181)" text-rendering="geometricPrecision" shape-rendering="geometricPrecision" transform="matrix(1,0,0,1,-417,-83)" stroke="rgb(181,226,181)">
      <rect x="432" width="190" height="31" y="160" clip-path="url(#clipPath2)" stroke="none"/>
    </g>
    <g text-rendering="geometricPrecision" stroke-miterlimit="1.45" shape-rendering="geometricPrecision" transform="matrix(1,0,0,1,-417,-83)" stroke-linecap="butt">
      <rect fill="none" x="432" width="190" height="31" y="160" clip-path="url(#clipPath2)"/>
      <text x="488.6504" xml:space="preserve" y="180.2139" clip-path="url(#clipPath2)" font-family="sans-serif" stroke="none">Device Packet</text>
    </g>
  </g>
</svg>
