<?xml version="1.0" encoding="UTF-8" standalone="no"?>
<!-- Created with Inkscape (http://www.inkscape.org/) -->

<svg
   width="210mm"
   height="297mm"
   viewBox="0 0 210 297"
   version="1.1"
   id="svg5"
   xmlns="http://www.w3.org/2000/svg"
   xmlns:svg="http://www.w3.org/2000/svg">
  <defs
     id="defs2" />
  <g
     id="layer1">
    <path
       id="path8152"
       style="fill:#cca800;fill-opacity:1;stroke:#906a00;stroke-width:0.846279;stroke-dasharray:none;stroke-opacity:1"
       d="m 0.43595022,7.014382 c -0.30029153,5.40526 4.65446948,6.606259 4.65446948,6.606259 l 1.0508961,33.933061 4.5044672,-0.300226 -0.450449,-3.002907 4.80469,0.450449 1.351343,-3.303129 h -6.156033 v -4.354245 l 5.255139,0.750671 1.201115,-5.705583 -6.156028,0.300225 -0.300226,-18.618095 c 0,0 4.129114,-0.488029 4.542022,-6.9818504 C 14.428092,-2.0699217 0.57338466,-1.3909436 0.43595022,7.014382 Z M 7.7861017,2.5626133 c 2.5377613,-3.68e-5 4.5950313,2.057233 4.5949933,4.5949926 3.8e-5,2.5377596 -2.057232,4.5950291 -4.5949933,4.5949921 C 5.2484276,11.752514 3.1912911,9.6952796 3.1913279,7.1576059 3.1912911,4.6199322 5.2484276,2.5626979 7.7861017,2.5626133 Z" />
  </g>
</svg>
