<?xml version="1.0" encoding="UTF-8"?><svg xmlns="http://www.w3.org/2000/svg" xmlns:xlink="http://www.w3.org/1999/xlink" fill-opacity="1" color-rendering="auto" color-interpolation="auto" text-rendering="auto" stroke="black" stroke-linecap="square" width="963" stroke-miterlimit="10" shape-rendering="auto" stroke-opacity="1" fill="black" stroke-dasharray="none" font-weight="normal" stroke-width="1" height="345" font-family="'Dialog'" font-style="normal" stroke-linejoin="miter" font-size="12px" stroke-dashoffset="0" image-rendering="auto">
  <!--Generated by ySVG 2.5-->
  <defs id="genericDefs"/>
  <g>
    <defs id="defs1">
      <clipPath clipPathUnits="userSpaceOnUse" id="clipPath1">
        <path d="M0 0 L963 0 L963 345 L0 345 L0 0 Z"/>
      </clipPath>
      <clipPath clipPathUnits="userSpaceOnUse" id="clipPath2">
        <path d="M166 347 L1129 347 L1129 692 L166 692 L166 347 Z"/>
      </clipPath>
      <clipPath clipPathUnits="userSpaceOnUse" id="clipPath3">
        <path d="M162 343 L1125 343 L1125 688 L162 688 L162 343 Z"/>
      </clipPath>
    </defs>
    <g fill="white" text-rendering="geometricPrecision" shape-rendering="geometricPrecision" transform="translate(-166,-347)" stroke="white">
      <rect x="166" width="963" height="345" y="347" clip-path="url(#clipPath2)" stroke="none"/>
    </g>
    <g fill="rgb(255,255,204)" text-rendering="geometricPrecision" shape-rendering="geometricPrecision" transform="matrix(1,0,0,1,-166,-347)" stroke="rgb(255,255,204)">
      <rect x="181" width="30" height="30" y="362" clip-path="url(#clipPath2)" stroke="none"/>
    </g>
    <g text-rendering="geometricPrecision" stroke-miterlimit="1.45" shape-rendering="geometricPrecision" transform="matrix(1,0,0,1,-166,-347)" stroke-linecap="butt">
      <rect fill="none" x="181" width="30" height="30" y="362" clip-path="url(#clipPath2)"/>
      <text x="188.333" xml:space="preserve" y="381.7139" clip-path="url(#clipPath2)" font-family="sans-serif" stroke="none">.ctl</text>
    </g>
    <g fill="rgb(255,255,204)" text-rendering="geometricPrecision" shape-rendering="geometricPrecision" transform="matrix(1,0,0,1,-166,-347)" stroke="rgb(255,255,204)">
      <rect x="181" width="30" height="30" y="411" clip-path="url(#clipPath2)" stroke="none"/>
    </g>
    <g text-rendering="geometricPrecision" stroke-miterlimit="1.45" shape-rendering="geometricPrecision" transform="matrix(1,0,0,1,-166,-347)" stroke-linecap="butt">
      <rect fill="none" x="181" width="30" height="30" y="411" clip-path="url(#clipPath2)"/>
      <text x="187.9961" xml:space="preserve" y="430.7139" clip-path="url(#clipPath2)" font-family="sans-serif" stroke="none">.tbl</text>
    </g>
    <g fill="rgb(255,255,204)" text-rendering="geometricPrecision" shape-rendering="geometricPrecision" transform="matrix(1,0,0,1,-166,-347)" stroke="rgb(255,255,204)">
      <rect x="192" width="37" height="30" y="618" clip-path="url(#clipPath2)" stroke="none"/>
    </g>
    <g text-rendering="geometricPrecision" stroke-miterlimit="1.45" shape-rendering="geometricPrecision" transform="matrix(1,0,0,1,-166,-347)" stroke-linecap="butt">
      <rect fill="none" x="192" width="37" height="30" y="618" clip-path="url(#clipPath2)"/>
      <text x="199.4961" xml:space="preserve" y="637.7139" clip-path="url(#clipPath2)" font-family="sans-serif" stroke="none">.sbk</text>
    </g>
    <g fill="rgb(153,255,153)" text-rendering="geometricPrecision" shape-rendering="geometricPrecision" transform="matrix(1,0,0,1,-166,-347)" stroke="rgb(153,255,153)">
      <rect x="262" width="60" height="30" y="618" clip-path="url(#clipPath2)" stroke="none"/>
    </g>
    <g text-rendering="geometricPrecision" stroke-miterlimit="1.45" shape-rendering="geometricPrecision" transform="matrix(1,0,0,1,-166,-347)" stroke-linecap="butt">
      <rect fill="none" x="262" width="60" height="30" y="618" clip-path="url(#clipPath2)"/>
      <text x="271.9932" xml:space="preserve" y="637.7139" clip-path="url(#clipPath2)" font-family="sans-serif" stroke="none">sbksplit</text>
    </g>
    <g fill="rgb(153,255,153)" text-rendering="geometricPrecision" shape-rendering="geometricPrecision" transform="matrix(1,0,0,1,-166,-347)" stroke="rgb(153,255,153)">
      <rect x="269.5" width="60" height="30" y="381" clip-path="url(#clipPath2)" stroke="none"/>
    </g>
    <g text-rendering="geometricPrecision" stroke-miterlimit="1.45" shape-rendering="geometricPrecision" transform="matrix(1,0,0,1,-166,-347)" stroke-linecap="butt">
      <rect fill="none" x="269.5" width="60" height="30" y="381" clip-path="url(#clipPath2)"/>
      <text x="280.4893" xml:space="preserve" y="400.7139" clip-path="url(#clipPath2)" font-family="sans-serif" stroke="none">tbl2aifc</text>
    </g>
    <g fill="aqua" text-rendering="geometricPrecision" shape-rendering="geometricPrecision" transform="matrix(1,0,0,1,-166,-347)" stroke="aqua">
      <rect x="433" width="55" height="30" y="618" clip-path="url(#clipPath2)" stroke="none"/>
    </g>
    <g text-rendering="geometricPrecision" stroke-miterlimit="1.45" shape-rendering="geometricPrecision" transform="matrix(1,0,0,1,-166,-347)" stroke-linecap="butt">
      <rect fill="none" x="433" width="55" height="30" y="618" clip-path="url(#clipPath2)"/>
      <text x="444.4893" xml:space="preserve" y="637.7139" clip-path="url(#clipPath2)" font-family="sans-serif" stroke="none">inflate</text>
    </g>
    <g fill="rgb(255,255,204)" text-rendering="geometricPrecision" shape-rendering="geometricPrecision" transform="matrix(1,0,0,1,-166,-347)" stroke="rgb(255,255,204)">
      <rect x="355" width="45" height="30" y="618" clip-path="url(#clipPath2)" stroke="none"/>
    </g>
    <g text-rendering="geometricPrecision" stroke-miterlimit="1.45" shape-rendering="geometricPrecision" transform="matrix(1,0,0,1,-166,-347)" stroke-linecap="butt">
      <rect fill="none" x="355" width="45" height="30" y="618" clip-path="url(#clipPath2)"/>
      <text x="359.4941" xml:space="preserve" y="637.7139" clip-path="url(#clipPath2)" font-family="sans-serif" stroke="none">.seq.rz</text>
    </g>
    <g fill="rgb(255,255,204)" text-rendering="geometricPrecision" shape-rendering="geometricPrecision" transform="matrix(1,0,0,1,-166,-347)" stroke="rgb(255,255,204)">
      <rect x="521" width="30" height="30" y="618" clip-path="url(#clipPath2)" stroke="none"/>
    </g>
    <g text-rendering="geometricPrecision" stroke-miterlimit="1.45" shape-rendering="geometricPrecision" transform="matrix(1,0,0,1,-166,-347)" stroke-linecap="butt">
      <rect fill="none" x="521" width="30" height="30" y="618" clip-path="url(#clipPath2)"/>
      <text x="524.6592" xml:space="preserve" y="637.7139" clip-path="url(#clipPath2)" font-family="sans-serif" stroke="none">.seq</text>
    </g>
    <g fill="rgb(255,255,204)" text-rendering="geometricPrecision" shape-rendering="geometricPrecision" transform="matrix(1,0,0,1,-166,-347)" stroke="rgb(255,255,204)">
      <rect x="375.5" width="45" height="30" y="381" clip-path="url(#clipPath2)" stroke="none"/>
    </g>
    <g text-rendering="geometricPrecision" stroke-miterlimit="1.45" shape-rendering="geometricPrecision" transform="matrix(1,0,0,1,-166,-347)" stroke-linecap="butt">
      <rect fill="none" x="375.5" width="45" height="30" y="381" clip-path="url(#clipPath2)"/>
      <text x="386.9961" xml:space="preserve" y="400.7139" clip-path="url(#clipPath2)" font-family="sans-serif" stroke="none">.inst</text>
    </g>
    <g fill="rgb(255,255,204)" text-rendering="geometricPrecision" shape-rendering="geometricPrecision" transform="matrix(1,0,0,1,-166,-347)" stroke="rgb(255,255,204)">
      <rect x="277" width="45" height="30" y="457" clip-path="url(#clipPath2)" stroke="none"/>
    </g>
    <g text-rendering="geometricPrecision" stroke-miterlimit="1.45" shape-rendering="geometricPrecision" transform="matrix(1,0,0,1,-166,-347)" stroke-linecap="butt">
      <rect fill="none" x="277" width="45" height="30" y="457" clip-path="url(#clipPath2)"/>
      <text x="288.4961" xml:space="preserve" y="476.7139" clip-path="url(#clipPath2)" font-family="sans-serif" stroke="none">.aifc</text>
    </g>
    <g fill="rgb(153,255,153)" text-rendering="geometricPrecision" shape-rendering="geometricPrecision" transform="matrix(1,0,0,1,-166,-347)" stroke="rgb(153,255,153)">
      <rect x="368" width="70" height="30" y="457" clip-path="url(#clipPath2)" stroke="none"/>
    </g>
    <g text-rendering="geometricPrecision" stroke-miterlimit="1.45" shape-rendering="geometricPrecision" transform="matrix(1,0,0,1,-166,-347)" stroke-linecap="butt">
      <rect fill="none" x="368" width="70" height="30" y="457" clip-path="url(#clipPath2)"/>
      <text x="379.6562" xml:space="preserve" y="476.7139" clip-path="url(#clipPath2)" font-family="sans-serif" stroke="none">aifc2wav</text>
    </g>
    <g fill="rgb(255,255,204)" text-rendering="geometricPrecision" shape-rendering="geometricPrecision" transform="matrix(1,0,0,1,-166,-347)" stroke="rgb(255,255,204)">
      <rect x="482" width="30" height="30" y="457" clip-path="url(#clipPath2)" stroke="none"/>
    </g>
    <g text-rendering="geometricPrecision" stroke-miterlimit="1.45" shape-rendering="geometricPrecision" transform="matrix(1,0,0,1,-166,-347)" stroke-linecap="butt">
      <rect fill="none" x="482" width="30" height="30" y="457" clip-path="url(#clipPath2)"/>
      <text x="484.6631" xml:space="preserve" y="476.7139" clip-path="url(#clipPath2)" font-family="sans-serif" stroke="none">.wav</text>
    </g>
    <g fill="rgb(153,255,153)" text-rendering="geometricPrecision" shape-rendering="geometricPrecision" transform="matrix(1,0,0,1,-166,-347)" stroke="rgb(153,255,153)">
      <rect x="458" width="78" height="30" y="517" clip-path="url(#clipPath2)" stroke="none"/>
    </g>
    <g text-rendering="geometricPrecision" stroke-miterlimit="1.45" shape-rendering="geometricPrecision" transform="matrix(1,0,0,1,-166,-347)" stroke-linecap="butt">
      <rect fill="none" x="458" width="78" height="30" y="517" clip-path="url(#clipPath2)"/>
      <text x="466.3086" xml:space="preserve" y="536.7139" clip-path="url(#clipPath2)" font-family="sans-serif" stroke="none">tabledesign</text>
    </g>
    <g fill="rgb(255,255,204)" text-rendering="geometricPrecision" shape-rendering="geometricPrecision" transform="matrix(1,0,0,1,-166,-347)" stroke="rgb(255,255,204)">
      <rect x="604.5" width="37" height="30" y="517" clip-path="url(#clipPath2)" stroke="none"/>
    </g>
    <g text-rendering="geometricPrecision" stroke-miterlimit="1.45" shape-rendering="geometricPrecision" transform="matrix(1,0,0,1,-166,-347)" stroke-linecap="butt">
      <rect fill="none" x="604.5" width="37" height="30" y="517" clip-path="url(#clipPath2)"/>
      <text x="609.9922" xml:space="preserve" y="536.7139" clip-path="url(#clipPath2)" font-family="sans-serif" stroke="none">.coef</text>
    </g>
    <g fill="rgb(153,255,153)" text-rendering="geometricPrecision" shape-rendering="geometricPrecision" transform="matrix(1,0,0,1,-166,-347)" stroke="rgb(153,255,153)">
      <rect x="584" width="78" height="30" y="618" clip-path="url(#clipPath2)" stroke="none"/>
    </g>
    <g text-rendering="geometricPrecision" stroke-miterlimit="1.45" shape-rendering="geometricPrecision" transform="matrix(1,0,0,1,-166,-347)" stroke-linecap="butt">
      <rect fill="none" x="584" width="78" height="30" y="618" clip-path="url(#clipPath2)"/>
      <text x="595.9883" xml:space="preserve" y="637.7139" clip-path="url(#clipPath2)" font-family="sans-serif" stroke="none">cseq2midi</text>
    </g>
    <g fill="rgb(255,255,204)" text-rendering="geometricPrecision" shape-rendering="geometricPrecision" transform="matrix(1,0,0,1,-166,-347)" stroke="rgb(255,255,204)">
      <rect x="722" width="37" height="30" y="605" clip-path="url(#clipPath2)" stroke="none"/>
    </g>
    <g text-rendering="geometricPrecision" stroke-miterlimit="1.45" shape-rendering="geometricPrecision" transform="matrix(1,0,0,1,-166,-347)" stroke-linecap="butt">
      <rect fill="none" x="722" width="37" height="30" y="605" clip-path="url(#clipPath2)"/>
      <text x="727.832" xml:space="preserve" y="624.7139" clip-path="url(#clipPath2)" font-family="sans-serif" stroke="none">.midi</text>
    </g>
    <g fill="rgb(255,255,204)" text-rendering="geometricPrecision" shape-rendering="geometricPrecision" transform="matrix(1,0,0,1,-166,-347)" stroke="rgb(255,255,204)">
      <rect x="713" width="55" height="30" y="647" clip-path="url(#clipPath2)" stroke="none"/>
    </g>
    <g text-rendering="geometricPrecision" stroke-miterlimit="1.45" shape-rendering="geometricPrecision" transform="matrix(1,0,0,1,-166,-347)" stroke-linecap="butt">
      <rect fill="none" x="713" width="55" height="30" y="647" clip-path="url(#clipPath2)"/>
      <text x="720.1533" xml:space="preserve" y="666.7139" clip-path="url(#clipPath2)" font-family="sans-serif" stroke="none">.pattern</text>
    </g>
    <g fill="rgb(153,255,153)" text-rendering="geometricPrecision" shape-rendering="geometricPrecision" transform="matrix(1,0,0,1,-166,-347)" stroke="rgb(153,255,153)">
      <rect x="690.5" width="78" height="30" y="381" clip-path="url(#clipPath2)" stroke="none"/>
    </g>
    <g text-rendering="geometricPrecision" stroke-miterlimit="1.45" shape-rendering="geometricPrecision" transform="matrix(1,0,0,1,-166,-347)" stroke-linecap="butt">
      <rect fill="none" x="690.5" width="78" height="30" y="381" clip-path="url(#clipPath2)"/>
      <text x="721.8301" xml:space="preserve" y="400.7139" clip-path="url(#clipPath2)" font-family="sans-serif" stroke="none">gic</text>
    </g>
    <g fill="rgb(153,255,153)" text-rendering="geometricPrecision" shape-rendering="geometricPrecision" transform="matrix(1,0,0,1,-166,-347)" stroke="rgb(153,255,153)">
      <rect x="584" width="78" height="30" y="457" clip-path="url(#clipPath2)" stroke="none"/>
    </g>
    <g text-rendering="geometricPrecision" stroke-miterlimit="1.45" shape-rendering="geometricPrecision" transform="matrix(1,0,0,1,-166,-347)" stroke-linecap="butt">
      <rect fill="none" x="584" width="78" height="30" y="457" clip-path="url(#clipPath2)"/>
      <text x="599.6562" xml:space="preserve" y="476.7139" clip-path="url(#clipPath2)" font-family="sans-serif" stroke="none">wav2aifc</text>
    </g>
    <g fill="rgb(255,255,204)" text-rendering="geometricPrecision" shape-rendering="geometricPrecision" transform="matrix(1,0,0,1,-166,-347)" stroke="rgb(255,255,204)">
      <rect x="707" width="45" height="30" y="457" clip-path="url(#clipPath2)" stroke="none"/>
    </g>
    <g text-rendering="geometricPrecision" stroke-miterlimit="1.45" shape-rendering="geometricPrecision" transform="matrix(1,0,0,1,-166,-347)" stroke-linecap="butt">
      <rect fill="none" x="707" width="45" height="30" y="457" clip-path="url(#clipPath2)"/>
      <text x="718.4961" xml:space="preserve" y="476.7139" clip-path="url(#clipPath2)" font-family="sans-serif" stroke="none">.aifc</text>
    </g>
    <g fill="rgb(255,255,204)" text-rendering="geometricPrecision" shape-rendering="geometricPrecision" transform="matrix(1,0,0,1,-166,-347)" stroke="rgb(255,255,204)">
      <rect x="809" width="30" height="30" y="362" clip-path="url(#clipPath2)" stroke="none"/>
    </g>
    <g text-rendering="geometricPrecision" stroke-miterlimit="1.45" shape-rendering="geometricPrecision" transform="matrix(1,0,0,1,-166,-347)" stroke-linecap="butt">
      <rect fill="none" x="809" width="30" height="30" y="362" clip-path="url(#clipPath2)"/>
      <text x="816.333" xml:space="preserve" y="381.7139" clip-path="url(#clipPath2)" font-family="sans-serif" stroke="none">.ctl</text>
    </g>
    <g fill="rgb(255,255,204)" text-rendering="geometricPrecision" shape-rendering="geometricPrecision" transform="matrix(1,0,0,1,-166,-347)" stroke="rgb(255,255,204)">
      <rect x="809" width="30" height="30" y="411" clip-path="url(#clipPath2)" stroke="none"/>
    </g>
    <g text-rendering="geometricPrecision" stroke-miterlimit="1.45" shape-rendering="geometricPrecision" transform="matrix(1,0,0,1,-166,-347)" stroke-linecap="butt">
      <rect fill="none" x="809" width="30" height="30" y="411" clip-path="url(#clipPath2)"/>
      <text x="815.9961" xml:space="preserve" y="430.7139" clip-path="url(#clipPath2)" font-family="sans-serif" stroke="none">.tbl</text>
    </g>
    <g fill="rgb(153,255,153)" text-rendering="geometricPrecision" shape-rendering="geometricPrecision" transform="matrix(1,0,0,1,-166,-347)" stroke="rgb(153,255,153)">
      <rect x="819" width="78" height="30" y="618" clip-path="url(#clipPath2)" stroke="none"/>
    </g>
    <g text-rendering="geometricPrecision" stroke-miterlimit="1.45" shape-rendering="geometricPrecision" transform="matrix(1,0,0,1,-166,-347)" stroke-linecap="butt">
      <rect fill="none" x="819" width="78" height="30" y="618" clip-path="url(#clipPath2)"/>
      <text x="830.9883" xml:space="preserve" y="637.7139" clip-path="url(#clipPath2)" font-family="sans-serif" stroke="none">midi2cseq</text>
    </g>
    <g fill="rgb(255,255,204)" text-rendering="geometricPrecision" shape-rendering="geometricPrecision" transform="matrix(1,0,0,1,-166,-347)" stroke="rgb(255,255,204)">
      <rect x="927" width="30" height="30" y="618" clip-path="url(#clipPath2)" stroke="none"/>
    </g>
    <g text-rendering="geometricPrecision" stroke-miterlimit="1.45" shape-rendering="geometricPrecision" transform="matrix(1,0,0,1,-166,-347)" stroke-linecap="butt">
      <rect fill="none" x="927" width="30" height="30" y="618" clip-path="url(#clipPath2)"/>
      <text x="930.6592" xml:space="preserve" y="637.7139" clip-path="url(#clipPath2)" font-family="sans-serif" stroke="none">.seq</text>
    </g>
    <g fill="aqua" text-rendering="geometricPrecision" shape-rendering="geometricPrecision" transform="matrix(1,0,0,1,-166,-347)" stroke="aqua">
      <rect x="987" width="55" height="30" y="618" clip-path="url(#clipPath2)" stroke="none"/>
    </g>
    <g text-rendering="geometricPrecision" stroke-miterlimit="1.45" shape-rendering="geometricPrecision" transform="matrix(1,0,0,1,-166,-347)" stroke-linecap="butt">
      <rect fill="none" x="987" width="55" height="30" y="618" clip-path="url(#clipPath2)"/>
      <text x="1005.1631" xml:space="preserve" y="637.7139" clip-path="url(#clipPath2)" font-family="sans-serif" stroke="none">sbc</text>
    </g>
    <g fill="rgb(255,255,204)" text-rendering="geometricPrecision" shape-rendering="geometricPrecision" transform="matrix(1,0,0,1,-166,-347)" stroke="rgb(255,255,204)">
      <rect x="1072" width="30" height="30" y="618" clip-path="url(#clipPath2)" stroke="none"/>
    </g>
    <g text-rendering="geometricPrecision" stroke-miterlimit="1.45" shape-rendering="geometricPrecision" transform="matrix(1,0,0,1,-166,-347)" stroke-linecap="butt">
      <rect fill="none" x="1072" width="30" height="30" y="618" clip-path="url(#clipPath2)"/>
      <text x="1075.9961" xml:space="preserve" y="637.7139" clip-path="url(#clipPath2)" font-family="sans-serif" stroke="none">.sbk</text>
      <path fill="none" d="M229 633 L254 633" clip-path="url(#clipPath2)"/>
      <path d="M262 633 L250 628 L253 633 L250 638 Z" clip-path="url(#clipPath2)" stroke="none"/>
      <path fill="none" d="M211 379.7536 L261.6315 389.0483" clip-path="url(#clipPath2)"/>
      <path d="M269.5 390.4928 L258.6 383.4082 L260.6479 388.8677 L256.7944 393.2439 Z" clip-path="url(#clipPath2)" stroke="none"/>
      <path fill="none" d="M211 421.6522 L261.8163 406.9228" clip-path="url(#clipPath2)"/>
      <path d="M269.5 404.6956 L256.5824 403.2341 L260.8558 407.2012 L259.3664 412.8387 Z" clip-path="url(#clipPath2)" stroke="none"/>
      <path fill="none" d="M322 633 L347 633" clip-path="url(#clipPath2)"/>
      <path d="M355 633 L343 628 L346 633 L343 638 Z" clip-path="url(#clipPath2)" stroke="none"/>
      <path fill="none" d="M400 633 L425 633" clip-path="url(#clipPath2)"/>
      <path d="M433 633 L421 628 L424 633 L421 638 Z" clip-path="url(#clipPath2)" stroke="none"/>
      <path fill="none" d="M488 633 L513 633" clip-path="url(#clipPath2)"/>
      <path d="M521 633 L509 628 L512 633 L509 638 Z" clip-path="url(#clipPath2)" stroke="none"/>
      <path fill="none" d="M329.5 396 L367.5 396" clip-path="url(#clipPath2)"/>
      <path d="M375.5 396 L363.5 391 L366.5 396 L363.5 401 Z" clip-path="url(#clipPath2)" stroke="none"/>
      <path fill="none" d="M299.5 411 L299.5 449" clip-path="url(#clipPath2)"/>
      <path d="M299.5 457 L304.5 445 L299.5 448 L294.5 445 Z" clip-path="url(#clipPath2)" stroke="none"/>
      <path fill="none" d="M322 472 L360 472" clip-path="url(#clipPath2)"/>
      <path d="M368 472 L356 467 L359 472 L356 477 Z" clip-path="url(#clipPath2)" stroke="none"/>
      <path fill="none" stroke-dasharray="6,2" d="M438 472 L474 472" clip-path="url(#clipPath2)" stroke="rgb(153,51,102)"/>
      <path fill="rgb(153,51,102)" stroke-dasharray="6,2" d="M482 472 L470 467 L473 472 L470 477 Z" clip-path="url(#clipPath2)" stroke="none"/>
      <path fill="none" d="M497 487 L497 509" clip-path="url(#clipPath2)"/>
      <path d="M497 517 L502 505 L497 508 L492 505 Z" clip-path="url(#clipPath2)" stroke="none"/>
      <path fill="none" stroke-dasharray="6,2" d="M536 532 L596.5 532" clip-path="url(#clipPath2)" stroke="rgb(153,51,102)"/>
      <path fill="rgb(153,51,102)" stroke-dasharray="6,2" d="M604.5 532 L592.5 527 L595.5 532 L592.5 537 Z" clip-path="url(#clipPath2)" stroke="none"/>
      <path fill="none" d="M551 633 L576 633" clip-path="url(#clipPath2)"/>
      <path d="M584 633 L572 628 L575 633 L572 638 Z" clip-path="url(#clipPath2)" stroke="none"/>
      <path fill="none" d="M662 628.6851 L714.0485 622.9266" clip-path="url(#clipPath2)"/>
      <path d="M722 622.0468 L709.5229 618.3968 L713.0546 623.0366 L710.6226 628.3361 Z" clip-path="url(#clipPath2)" stroke="none"/>
      <path fill="none" d="M662 642.6255 L705.233 653.2958" clip-path="url(#clipPath2)"/>
      <path d="M713 655.2128 L702.5477 647.483 L704.2622 653.0562 L700.1515 657.1917 Z" clip-path="url(#clipPath2)" stroke="none"/>
      <path fill="none" d="M420.5 396 L682.5 396" clip-path="url(#clipPath2)"/>
      <path d="M690.5 396 L678.5 391 L681.5 396 L678.5 401 Z" clip-path="url(#clipPath2)" stroke="none"/>
      <path fill="none" d="M512 472 L576 472" clip-path="url(#clipPath2)"/>
      <path d="M584 472 L572 467 L575 472 L572 477 Z" clip-path="url(#clipPath2)" stroke="none"/>
      <path fill="none" d="M623 517 L623 495" clip-path="url(#clipPath2)"/>
      <path d="M623 487 L618 499 L623 496 L628 499 Z" clip-path="url(#clipPath2)" stroke="none"/>
      <path fill="none" stroke-dasharray="6,2" d="M662 472 L699 472" clip-path="url(#clipPath2)" stroke="rgb(153,51,102)"/>
      <path fill="rgb(153,51,102)" stroke-dasharray="6,2" d="M707 472 L695 467 L698 472 L695 477 Z" clip-path="url(#clipPath2)" stroke="none"/>
      <path fill="none" d="M729.5 457 L729.5 419" clip-path="url(#clipPath2)"/>
      <path d="M729.5 411 L724.5 423 L729.5 420 L734.5 423 Z" clip-path="url(#clipPath2)" stroke="none"/>
      <path fill="none" d="M768.5 388.1587 L801.157 381.5928" clip-path="url(#clipPath2)"/>
      <path d="M809 380.0159 L796.2499 377.4793 L800.1766 381.7899 L798.221 387.2831 Z" clip-path="url(#clipPath2)" stroke="none"/>
      <path fill="none" d="M768.5 408.381 L801.375 418.8175" clip-path="url(#clipPath2)"/>
      <path d="M809 421.2381 L799.0754 412.8416 L800.4219 418.5149 L796.0496 422.3728 Z" clip-path="url(#clipPath2)" stroke="none"/>
      <path fill="none" d="M759 622.0468 L811.0485 627.8054" clip-path="url(#clipPath2)"/>
      <path d="M819 628.6851 L807.6226 622.3958 L810.0546 627.6954 L806.5229 632.3351 Z" clip-path="url(#clipPath2)" stroke="none"/>
      <path fill="none" d="M768 655.2128 L811.233 644.5425" clip-path="url(#clipPath2)"/>
      <path d="M819 642.6255 L806.1515 640.6466 L810.2622 644.7821 L808.5477 650.3553 Z" clip-path="url(#clipPath2)" stroke="none"/>
      <path fill="none" d="M897 633 L919 633" clip-path="url(#clipPath2)"/>
      <path d="M927 633 L915 628 L918 633 L915 638 Z" clip-path="url(#clipPath2)" stroke="none"/>
      <path fill="none" d="M957 633 L979 633" clip-path="url(#clipPath2)"/>
      <path d="M987 633 L975 628 L978 633 L975 638 Z" clip-path="url(#clipPath2)" stroke="none"/>
      <path fill="none" d="M1042 633 L1064 633" clip-path="url(#clipPath2)"/>
      <path d="M1072 633 L1060 628 L1063 633 L1060 638 Z" clip-path="url(#clipPath2)" stroke="none"/>
    </g>
    <g fill="rgb(210,210,210)" text-rendering="geometricPrecision" shape-rendering="geometricPrecision" transform="matrix(1,0,0,1,-166,-347) translate(4,4)" stroke="rgb(210,210,210)">
      <rect x="890.1582" width="219.8418" height="149.3765" y="375.6235" clip-path="url(#clipPath3)" stroke="none"/>
    </g>
    <g fill="rgb(242,240,216)" text-rendering="geometricPrecision" shape-rendering="geometricPrecision" transform="matrix(1,0,0,1,-166,-347)" stroke="rgb(242,240,216)">
      <rect x="890.1582" width="219.8418" height="149.3765" y="375.6235" clip-path="url(#clipPath2)" stroke="none"/>
      <rect x="890.1582" y="375.6235" clip-path="url(#clipPath2)" fill="rgb(183,182,158)" width="219.8418" height="22.3765" stroke="none"/>
    </g>
    <g font-size="15px" stroke-linecap="butt" transform="matrix(1,0,0,1,-166,-347)" text-rendering="geometricPrecision" font-family="sans-serif" shape-rendering="geometricPrecision" stroke-miterlimit="1.45">
      <text x="1057.9463" xml:space="preserve" y="392.7041" clip-path="url(#clipPath2)" stroke="none">Legend</text>
      <rect fill="none" x="890.1582" width="219.8418" height="149.3765" y="375.6235" clip-path="url(#clipPath2)"/>
    </g>
    <g fill="rgb(153,255,153)" text-rendering="geometricPrecision" shape-rendering="geometricPrecision" transform="matrix(1,0,0,1,-166,-347)" stroke="rgb(153,255,153)">
      <rect x="903" width="78" height="30" y="403" clip-path="url(#clipPath2)" stroke="none"/>
    </g>
    <g text-rendering="geometricPrecision" stroke-miterlimit="1.45" shape-rendering="geometricPrecision" transform="matrix(1,0,0,1,-166,-347)" stroke-linecap="butt">
      <rect fill="none" x="903" width="78" height="30" y="403" clip-path="url(#clipPath2)"/>
      <text x="914.9912" xml:space="preserve" y="422.7139" clip-path="url(#clipPath2)" font-family="sans-serif" stroke="none">c program</text>
    </g>
    <g fill="aqua" text-rendering="geometricPrecision" shape-rendering="geometricPrecision" transform="matrix(1,0,0,1,-166,-347)" stroke="aqua">
      <rect x="903" width="70" height="30" y="440" clip-path="url(#clipPath2)" stroke="none"/>
    </g>
    <g text-rendering="geometricPrecision" stroke-miterlimit="1.45" shape-rendering="geometricPrecision" transform="matrix(1,0,0,1,-166,-347)" stroke-linecap="butt">
      <rect fill="none" x="903" width="70" height="30" y="440" clip-path="url(#clipPath2)"/>
      <text x="909.6582" xml:space="preserve" y="459.7139" clip-path="url(#clipPath2)" font-family="sans-serif" stroke="none">shell script</text>
    </g>
    <g fill="rgb(255,255,204)" text-rendering="geometricPrecision" shape-rendering="geometricPrecision" transform="matrix(1,0,0,1,-166,-347)" stroke="rgb(255,255,204)">
      <rect x="903" width="45" height="30" y="477" clip-path="url(#clipPath2)" stroke="none"/>
    </g>
    <g text-rendering="geometricPrecision" stroke-miterlimit="1.45" shape-rendering="geometricPrecision" transform="matrix(1,0,0,1,-166,-347)" stroke-linecap="butt">
      <rect fill="none" x="903" width="45" height="30" y="477" clip-path="url(#clipPath2)"/>
      <text x="917.8301" xml:space="preserve" y="496.7139" clip-path="url(#clipPath2)" font-family="sans-serif" stroke="none">file</text>
    </g>
    <g fill="white" text-rendering="geometricPrecision" shape-rendering="geometricPrecision" transform="matrix(1,0,0,1,-166,-347)" stroke="white">
      <ellipse rx="5.5" ry="6.5" clip-path="url(#clipPath2)" cx="1016.5" cy="455" stroke="none"/>
    </g>
    <g text-rendering="geometricPrecision" stroke-miterlimit="1.45" shape-rendering="geometricPrecision" transform="matrix(1,0,0,1,-166,-347)" stroke-linecap="butt">
      <ellipse rx="5.5" fill="none" ry="6.5" clip-path="url(#clipPath2)" cx="1016.5" cy="455"/>
    </g>
    <g fill="white" text-rendering="geometricPrecision" shape-rendering="geometricPrecision" transform="matrix(1,0,0,1,-166,-347)" stroke="white">
      <ellipse rx="5.5" ry="6.5" clip-path="url(#clipPath2)" cx="1085.5" cy="455" stroke="none"/>
    </g>
    <g text-rendering="geometricPrecision" stroke-miterlimit="1.45" shape-rendering="geometricPrecision" transform="matrix(1,0,0,1,-166,-347)" stroke-linecap="butt">
      <ellipse rx="5.5" fill="none" ry="6.5" clip-path="url(#clipPath2)" cx="1085.5" cy="455"/>
    </g>
    <g fill="white" text-rendering="geometricPrecision" shape-rendering="geometricPrecision" transform="matrix(1,0,0,1,-166,-347)" stroke="white">
      <ellipse rx="5.5" ry="6.5" clip-path="url(#clipPath2)" cx="1016.5" cy="506.5" stroke="none"/>
    </g>
    <g text-rendering="geometricPrecision" stroke-miterlimit="1.45" shape-rendering="geometricPrecision" transform="matrix(1,0,0,1,-166,-347)" stroke-linecap="butt">
      <ellipse rx="5.5" fill="none" ry="6.5" clip-path="url(#clipPath2)" cx="1016.5" cy="506.5"/>
    </g>
    <g fill="white" text-rendering="geometricPrecision" shape-rendering="geometricPrecision" transform="matrix(1,0,0,1,-166,-347)" stroke="white">
      <ellipse rx="5.5" ry="6.5" clip-path="url(#clipPath2)" cx="1085.5" cy="506.5" stroke="none"/>
    </g>
    <g text-rendering="geometricPrecision" stroke-miterlimit="1.45" shape-rendering="geometricPrecision" transform="matrix(1,0,0,1,-166,-347)" stroke-linecap="butt">
      <ellipse rx="5.5" fill="none" ry="6.5" clip-path="url(#clipPath2)" cx="1085.5" cy="506.5"/>
      <path fill="none" d="M1022 455 L1072 455" clip-path="url(#clipPath2)"/>
      <path d="M1080 455 L1068 450 L1071 455 L1068 460 Z" clip-path="url(#clipPath2)" stroke="none"/>
      <text x="1029.6602" xml:space="preserve" y="422.3633" clip-path="url(#clipPath2)" font-family="sans-serif" stroke="none">lossless</text>
      <text x="1020.9941" xml:space="preserve" y="437.0645" clip-path="url(#clipPath2)" font-family="sans-serif" stroke="none">(reversible)</text>
      <path fill="none" stroke-dasharray="6,2" d="M1022 506.5 L1072 506.5" clip-path="url(#clipPath2)" stroke="rgb(153,51,102)"/>
      <path fill="rgb(153,51,102)" stroke-dasharray="6,2" d="M1080 506.5 L1068 501.5 L1071 506.5 L1068 511.5 Z" clip-path="url(#clipPath2)" stroke="none"/>
      <text x="1037.3301" xml:space="preserve" y="481.2139" clip-path="url(#clipPath2)" font-family="sans-serif" stroke="none">lossy</text>
    </g>
  </g>
</svg>
